<svg xmlns="http://www.w3.org/2000/svg" viewBox="0 0 453 453">
  <defs>
    <style>
    #ananda path {
      animation: blink 25s ease infinite;
    }
    @keyframes blink {
      0% {filter:brightness(1)}
      10% {filter:brightness(1.5)}
      20% {filter:brightness(0.8)}
      30% {filter:brightness(1)}
      100% {}
    }
      .cls-1 {
        fill: #6d421f;
      }

      .cls-2 {
        fill: #942;
      }

      .cls-3 {
        fill: #d04b27;
      }

      .cls-4 {
        fill: #cb3d27;
      }

      .cls-5 {
        fill: #9ca839;
      }

      .cls-6 {
        fill: #46b649;
      }

      .cls-7 {
        fill: #0e89ba;
      }

      .cls-8 {
        fill: #384a9f;
      }

      .cls-9 {
        fill: #ffce06;
      }

      .cls-10 {
        fill: #f8971d;
      }

      .cls-11 {
        fill: #f6851f;
      }

      .cls-12 {
        fill: #f15d22;
      }

      .cls-13 {
        fill: #70c05c;
      }

      .cls-14 {
        fill: #70c38d;
      }

      .cls-15 {
        fill: #70c8b9;
      }

      .cls-16 {
        fill: #57c9e8;
      }

      .cls-17 {
        fill: #6085c4;
      }

      .cls-18 {
        fill: #685ba7;
      }

      .cls-19 {
        fill: #63489d;
      }

      .cls-20 {
        fill: #84469b;
      }

      .cls-21 {
        fill: #ed1f24;
      }

      .cls-22 {
        fill: #f78f1e;
      }

      .cls-23 {
        fill: #4a1113;
      }

      .cls-24 {
        fill: #4f2e11;
      }

      .cls-25 {
        fill: #4e4218;
      }

      .cls-26 {
        fill: #fee600;
      }

      .cls-27 {
        fill: #6cbe45;
      }

      .cls-28 {
        fill: #3abfef;
      }

      .cls-29 {
        fill: #3c51a3;
      }

      .cls-30 {
        fill: #d6e9bd;
      }

      .cls-31 {
        fill: #c3e8f5;
      }

      .cls-32 {
        fill: #b2bfe2;
      }

      .cls-33 {
        fill: #dbb5d5;
      }

      .cls-34 {
        fill: #98509f;
      }

      .cls-35 {
        fill: #fdf9cc;
      }

      .cls-36 {
        fill: #a5a4a4;
      }

      .cls-37 {
        fill: #fbcdcd;
      }

      .cls-38 {
        fill: #cbeaf1;
      }

      .cls-39 {
        fill: #cbcaac;
      }
    </style>

  </defs>
  <title>saccidananda</title>


      <path id="prithivi" class="cls-1" d="M226.77,406.32c64.45,27.6,111.35,21.37,144.32-3.24a199.86,199.86,0,0,1,26.47,50.46H56A200,200,0,0,1,82.5,403h0c33,24.67,79.9,30.94,144.4,3.31"/>
      <g id="gandha">
        <path class="cls-2" d="M106.36,375.88c29.72,26.46,69.62,39.84,120.55,30.44C162.41,434,115.48,427.68,82.51,403h0a192.15,192.15,0,0,1,23.86-27.14"/>
        <path class="cls-2" d="M347.25,375.94a192,192,0,0,1,23.84,27.14c-33,24.61-79.87,30.84-144.32,3.24,50.89,9.39,90.77-4,120.48-30.38"/>
      </g>
      <g id="payu">
        <path class="cls-3" d="M106.36,375.88c29.72,26.46,69.62,39.84,120.55,30.44a350.19,350.19,0,0,1-77.34-60.72h0a182.28,182.28,0,0,0-43.22,30.27"/>
        <path class="cls-3" d="M226.77,406.32c50.89,9.39,90.77-4,120.48-30.38h0a182.6,182.6,0,0,0-43.05-30.22h0A350.6,350.6,0,0,1,227,406.32"/>
      </g>
      <g id="ghrana">
        <path class="cls-4" d="M183.44,332.85a173.3,173.3,0,0,0-33.86,12.75h0a350.19,350.19,0,0,0,77.34,60.72l0-.05L184.42,332.6"/>
        <path class="cls-4" d="M227,406.32a350.6,350.6,0,0,0,77.22-60.59h0a173.19,173.19,0,0,0-34.76-13L227,406.27"/>
      </g>

      <g id="jihva">
        <path class="cls-5" d="M183.44,332.85a173.3,173.3,0,0,0-33.86,12.75h0a351.13,351.13,0,0,1-30.32-36.2h0a233.15,233.15,0,0,1,42.07-16.81h0l23.1,40"/>
        <path class="cls-5" d="M334,309.24a232.52,232.52,0,0,0-41.44-16.56h0l-23.09,40a173.19,173.19,0,0,1,34.76,13h0a351.32,351.32,0,0,0,30.34-36.2"/>
      </g>
      <g id="upastha">
        <path class="cls-6" d="M106.36,375.88a166.1,166.1,0,0,1-30.77-37.32,237.19,237.19,0,0,1,43.66-29.16h0a351.13,351.13,0,0,0,30.32,36.2h0a182.28,182.28,0,0,0-43.22,30.27"/>
        <path class="cls-6" d="M334.54,309.53a351.32,351.32,0,0,1-30.34,36.2h0a182.6,182.6,0,0,1,43.05,30.22h0A165.58,165.58,0,0,0,378,338.64h0A236.29,236.29,0,0,0,334,309.24"/>
      </g>
      <g id="rasa">
        <path class="cls-7" d="M106.36,375.88a166.1,166.1,0,0,1-30.77-37.32A241,241,0,0,0,49,364.81C58,379.9,69.09,393,82.51,403h0a192.15,192.15,0,0,1,23.86-27.14"/>
        <path class="cls-7" d="M371.09,403c13.41-10,24.52-23.07,33.56-38.13h0A238.89,238.89,0,0,0,378,338.64h0a165.58,165.58,0,0,1-30.79,37.3h0a192,192,0,0,1,23.84,27.14"/>
      </g>
      <g id="apas">
        <path class="cls-8" d="M0,453.54H56A200,200,0,0,1,82.5,403h0C69.09,393,58,379.9,49,364.81A239.61,239.61,0,0,0,.25,453.62"/>
        <path class="cls-8" d="M453.3,453.64a239.58,239.58,0,0,0-48.65-88.76h0c-9,15.06-20.15,28.12-33.56,38.13v.07a199.86,199.86,0,0,1,26.47,50.46h56"/>
      </g>

      <g id="cakshus">
        <path class="cls-9" d="M334.54,309.53a348.57,348.57,0,0,0,41.61-74.89H326l-33.51,58h0A232.52,232.52,0,0,1,334,309.24"/>
        <path class="cls-9" d="M127.86,234.64l33.46,58h0a233.15,233.15,0,0,0-42.07,16.81h0a348.16,348.16,0,0,1-41.51-74.76h49.9"/>
      </g>
      <g id="pada">
        <path class="cls-10" d="M334.54,309.53a348.57,348.57,0,0,0,41.61-74.89h36.48c-4.77,37.35-16.13,74-34.59,104h0A236.29,236.29,0,0,0,334,309.24"/>
        <path class="cls-10" d="M119.25,309.4a348.16,348.16,0,0,1-41.51-74.76H41.05C45.82,272,57.16,308.57,75.59,338.56a237.19,237.19,0,0,1,43.66-29.16"/>
      </g>
      <g id="rupa">
        <path class="cls-11" d="M404.65,364.88c22-36.57,31.75-85,32.83-130.24H412.63c-4.77,37.35-16.13,74-34.59,104h0a238.89,238.89,0,0,1,26.61,26.24"/>
        <path class="cls-11" d="M16,234.64H41.05C45.82,272,57.16,308.57,75.59,338.56A241,241,0,0,0,49,364.81C27,328.23,17.28,279.88,16.2,234.64"/>
      </g>
      <g id="tejas">
        <path class="cls-12" d="M453.3,453.64a239.58,239.58,0,0,0-48.65-88.76h0c22-36.57,31.75-85,32.83-130.24h16.06v218.9"/>
        <path class="cls-12" d="M.25,453.62A239.61,239.61,0,0,1,49,364.81C27,328.23,17.28,279.88,16.2,234.64H0v218.9"/>
      </g>

      <g id="tvak">
        <path class="cls-13" d="M127.64,234.64H77.74a346.53,346.53,0,0,1-20-70.34h0a321.74,321.74,0,0,0,36.67,12.3h0l33.51,58"/>
        <path class="cls-13" d="M376.15,234.64A346.53,346.53,0,0,0,396.2,164.3a321.32,321.32,0,0,1-36.65,12.3l-33.51,58h50.11"/>
      </g>
      <g id="pani">
        <path class="cls-14" d="M57.68,164.3c-6.26-2.55-12-5.13-17.09-7.67a320,320,0,0,0,.46,78H77.74a346.53,346.53,0,0,1-20-70.34"/>
        <path class="cls-14" d="M376.15,234.64A346.53,346.53,0,0,0,396.2,164.3q9.29-3.78,16.9-7.58h0a319.71,319.71,0,0,1-.48,77.91H376.15"/>
      </g>
      <g id="sparsha">
        <path class="cls-15" d="M16.2,234.64c-.76-32,2.83-62.46,9.54-86.07h0c4.33,2.58,9.27,5.29,14.85,8a320,320,0,0,0,.46,78H16"/>
        <path class="cls-15" d="M428,148.67c6.68,23.6,10.25,54,9.49,86H412.63a319.71,319.71,0,0,0,.48-77.91h0c5.59-2.75,10.54-5.47,14.89-8.05"/>
      </g>
      <g id="vayu">
        <path class="cls-16" d="M16,234.64H0V129.46H.18s7.6,8.43,25.56,19.12h0c-6.71,23.61-10.3,54.06-9.54,86.07"/>
        <path class="cls-16" d="M453.54,129.43V234.64H437.48c.76-32-2.81-62.37-9.49-86h0c18.09-10.75,25.73-19.24,25.73-19.24"/>
      </g>

      <g id="shrotra">
        <path class="cls-17" d="M359.55,176.6l41.81-72.42a350.34,350.34,0,0,1-5.16,60.12A321.32,321.32,0,0,1,359.55,176.6Z"/>
        <path class="cls-17" d="M52.54,104.18,94.35,176.6h0a321.74,321.74,0,0,1-36.67-12.3h0a350.34,350.34,0,0,1-5.16-60.12"/>
      </g>
      <g id="vak">
        <path class="cls-18" d="M401.16,104.18a244.33,244.33,0,0,1,11.95,52.55h0q-7.64,3.78-16.9,7.58a350.34,350.34,0,0,0,5.16-60.12"/>
        <path class="cls-18" d="M57.69,164.3a350.34,350.34,0,0,1-5.16-60.12,243.08,243.08,0,0,0-11.94,52.45c5.14,2.54,10.83,5.12,17.09,7.67"/>
      </g>
      <g id="sabda">
        <path class="cls-19" d="M401.16,104.11c11.09,5.43,20.4,21.85,26.83,44.56h0c-4.35,2.58-9.3,5.3-14.89,8.05h0a244.33,244.33,0,0,0-11.95-52.55"/>
        <path class="cls-19" d="M25.74,148.57c6.42-22.62,15.71-39,26.79-44.39a243.08,243.08,0,0,0-11.94,52.45c-5.58-2.76-10.52-5.47-14.85-8"/>
      </g>
      <g id="akasha">
        <path class="cls-20" d="M401.16,104.11c11.09,5.43,20.4,21.85,26.83,44.56h0c18.09-10.75,25.73-19.24,25.73-19.24h-.18V0s-33.17,82.18-52.19,104.27"/>
        <path class="cls-20" d="M.18,129.46s7.6,8.43,25.56,19.12h0c6.42-22.62,15.71-39,26.79-44.39v0C33.46,82.12,0,0,0,0V129.46"/>
      </g>


      <path id="muladhara" class="cls-21" d="M184.42,332.6,227,406.27l42.49-73.59a171,171,0,0,0-29.12-4.84l-13.55,23.47-13.55-23.47h0a170.71,170.71,0,0,0-29.78,5"/>
      <g id="svadhishthana">
        <path class="cls-22" d="M292.53,292.68l-23.09,40a171,171,0,0,0-29.12-4.84l24-41.54a231.6,231.6,0,0,1,28.23,6.38"/>
        <path class="cls-22" d="M184.42,332.6l-23.1-40h0a232.55,232.55,0,0,1,27.92-6.29h0l24,41.53h0a170.71,170.71,0,0,0-29.78,5"/>
      </g>
      <g id="ahamkara">
        <path class="cls-23" d="M213.22,327.84l13.55,23.47,13.55-23.47q-6.7-.52-13.55-.53t-13.55.53"/>
        <path class="cls-24" d="M189.24,286.3a237,237,0,0,1,75.06,0l-24,41.54q-6.7-.52-13.55-.53t-13.55.53h0l-24-41.53"/>
        <path class="cls-25" d="M189.24,286.3a237,237,0,0,1,75.06,0l11.26-19.49H178l11.26,19.5"/>
      </g>
      <path id="manipura" class="cls-26" d="M127.64,234.64H326l-33.51,58h0a231.6,231.6,0,0,0-28.23-6.38l11.26-19.49H178l11.26,19.5h0a232.55,232.55,0,0,0-27.92,6.29h0l-33.46-58"/>
      <path id="anahata" class="cls-27" d="M127.86,234.64l-33.51-58h0c25.36,6.91,56.6,12.48,94.57,14.75l-20.46,35.42h117L265,191.35h0c38-2.27,69.2-7.84,94.56-14.75l-33.51,58H127.64"/>
      <g id="vishuddhi">
        <path class="cls-28" d="M52.53,104.2c36.6,42.41,96.39,54.35,154.14,56.4h0l-17.75,30.76c-38-2.27-69.21-7.84-94.57-14.75h0L52.54,104.18"/>
        <path class="cls-28" d="M401.36,104.18,359.55,176.6C334.19,183.51,303,189.08,265,191.35h0L247.23,160.6h0c57.74-2,117.57-13.89,154.11-56.33"/>
      </g>
      <g id="ajna">
        <path class="cls-29" d="M401.35,104.27c-36.54,42.44-96.37,54.3-154.11,56.33h0l-12.6-21.84h0a35.44,35.44,0,0,0,27.57-34.56v0H401.36"/>
        <path class="cls-29" d="M219.3,138.73l-12.63,21.86h0c-57.75-2-117.54-14-154.14-56.4v0h138.8v0a35.44,35.44,0,0,0,28.29,34.71"/>
      </g>
      <g id="buddhi">
        <path class="cls-30" d="M265,191.35l20.45,35.42h-117l20.46-35.42q18,1.08,38,1.11t38-1.11"/>
        <path class="cls-31" d="M247.24,160.6c-6.8.24-13.56.34-20.25.34s-13.5-.1-20.32-.34h0l-17.75,30.76q18,1.08,38,1.11t38-1.11h0L247.23,160.6"/>
        <path class="cls-32" d="M219.3,138.73l-12.63,21.86h0c6.82.24,13.6.34,20.32.34s13.45-.1,20.25-.34h0l-12.6-21.84h0a35.86,35.86,0,0,1-15,.15"/>
        <path class="cls-33" d="M219.63,138.92a35.86,35.86,0,0,0,15-.15h0L227,125.47l-7.65,13.26"/>
      </g>
      <g id="sahasrara">
        <path class="cls-34" d="M227,125.47l7.68,13.29h0a35.44,35.44,0,0,0,27.57-34.56v0H248v0a21.26,21.26,0,0,1-21.26,21.26"/>
        <path class="cls-34" d="M219.3,138.73,227,125.47h-.18a21.26,21.26,0,0,1-21.26-21.26v0H191.34v0a35.44,35.44,0,0,0,28.29,34.71"/>
      </g>

    <path id="purusha" class="cls-35" d="M226.86,125.47a21.26,21.26,0,0,1-21.26-21.26h-.09a21.26,21.26,0,1,1,21.26,21.26"/>
    <g id="kanchuka">
      <path id="raga" class="cls-36" d="M191.34,104.21a35.43,35.43,0,1,1,70.86,0v0H248v0a21.26,21.26,0,1,0-42.52,0l.09,0H191.43"/>
      <path id="niyati" class="cls-37" d="M226.77,68.77a35.44,35.44,0,0,1,35.43,35.44v0H401.36v0C350.14,81.44,290.52,68.37,226.89,68.37"/>
      <path id="kaala" class="cls-38" d="M226.77,68.77a35.44,35.44,0,0,0-35.43,35.44v0H52.53c51.18-22.76,110.76-35.81,174.36-35.81"/>
      <path id="vidya" class="cls-39" d="M52.53,104.18c51.18-22.76,110.76-35.81,174.36-35.81s123.25,13.07,174.46,35.85C367,57.31,290.52,47.28,226.89,47.28s-140.58,10-174.36,56.87"/>
      <path id="kalaa" d="M52.53,104.2C33.46,82.12,0,0,0,0H453.54s-33.17,82.18-52.19,104.27v0C367,57.31,290.52,47.28,226.89,47.28s-140.58,10-174.36,56.87"/>
    </g>


  <script>
  //<![CDATA[
  for (let i=1;i<40;i++) {
    let els = document.getElementsByClassName('cls-'+i)
    if(els) {
      for (el of els) {
        el.style.animationDelay=i*500+'ms'
      }
    }
  }
//  ]]>
  </script>
</svg>
